<svg xmlns="http://www.w3.org/2000/svg" width="86.517" height="55.807" viewBox="0 0 86.517 55.807">
  <g id="AUF" transform="translate(-125 -4568)">
    <path id="Path_163" data-name="Path 163" d="M893.015-1313.555c.015,19.823.019,21.493.1,22.057a14.575,14.575,0,0,0,2.84,7.088,17.253,17.253,0,0,0,2.631,2.627,12.828,12.828,0,0,0,6.166,2.53,17.013,17.013,0,0,0,3.18-.029,13.079,13.079,0,0,0,7.535-3.821,13.224,13.224,0,0,0,2.554-3.568,14.816,14.816,0,0,0,1.427-4.632c.078-.524.087-1.859.1-22.129l.015-21.566h-8.836v21.032c0,18.129-.01,21.1-.073,21.5a4.765,4.765,0,0,1-2.534,3.564c-2.792,1.4-5.952-.583-6.229-3.9-.029-.345-.049-8.555-.049-21.377V-1335H893Z" transform="translate(-735.908 5903)" fill="#a90a30"/>
    <path id="Path_164" data-name="Path 164" d="M244.842-1332.436a13.061,13.061,0,0,0-7.613,2.84,17.274,17.274,0,0,0-2.093,2.078,14.336,14.336,0,0,0-3.088,7.846c-.029.369-.049,8.215-.049,21.634v21.061h8.836v-18.255l4.418.01,4.418.015.015,9.1.01,9.1h8.836v-21.265c0-19.988,0-21.3-.087-21.916a14.279,14.279,0,0,0-2.6-6.753A12.955,12.955,0,0,0,244.842-1332.436Zm1.335,9.356a4.531,4.531,0,0,1,3.447,3.724c.039.262.058,2.287.063,7.579l.01,7.224h-8.86l.01-7.37.015-7.365.126-.461a4.543,4.543,0,0,1,2.86-3.175A5.151,5.151,0,0,1,246.177-1323.08Z" transform="translate(-107 5900.567)" fill="#a90a30"/>
    <path id="Path_165" data-name="Path 165" d="M1569.575-1332.966a12.873,12.873,0,0,0-8.292,3.675,13.536,13.536,0,0,0-2.8,3.836,14.268,14.268,0,0,0-1.369,4.5c-.078.524-.087,1.84-.1,21.979l-.015,21.425h8.885v-27.674h13.3v-4.607c0-4.137-.01-4.608-.078-4.637-.039-.015-2.874-.029-6.3-.024h-6.579l-.354,0,.015-2.685.019-2.68.126-.461a4.451,4.451,0,0,1,3.4-3.321,46.935,46.935,0,0,1,5.064-.078h4.685V-1333l-4.695.01C1571.905-1332.985,1569.7-1332.976,1569.575-1332.966Z" transform="translate(-1367.671 5901.097)" fill="#a90a30"/>
  </g>
</svg>
