<svg xmlns="http://www.w3.org/2000/svg" width="60.321" height="61.152" viewBox="0 0 60.321 61.152">
  <path id="website" d="M98.112,111.689a31.358,31.358,0,0,0-29.974,21.5H72.58a25.619,25.619,0,0,1,1.652-3.555h8.548a36.022,36.022,0,0,0-.933,3.555h4.33a33.425,33.425,0,0,1,1.092-3.555h8.249v3.555H99.7v-3.555h8.912a31.184,31.184,0,0,1,1.222,3.555h4.33a34.972,34.972,0,0,0-1.045-3.555h8.875a25.608,25.608,0,0,1,1.652,3.555h4.433A31.346,31.346,0,0,0,98.112,111.689Zm6.308,4.918a27.233,27.233,0,0,1,14.66,8.847h-7.755a29.327,29.327,0,0,0-6.906-8.847Zm-13.839.308a27.762,27.762,0,0,0-6.159,8.539H77.143A27.2,27.2,0,0,1,90.581,116.915Zm9.117,1.344a24.094,24.094,0,0,1,6.747,7.195H99.7Zm-4.181.028v7.167h-6.3A22.133,22.133,0,0,1,95.517,118.286ZM69.388,137.23a1.786,1.786,0,0,0-1.045.289.859.859,0,0,0-.42.719,2.759,2.759,0,0,0,.2.877L70.34,145.5c.068.191.146.406.233.635a2.182,2.182,0,0,0,.355.607,1.459,1.459,0,0,0,.588.411,2.475,2.475,0,0,0,.933.149,2.135,2.135,0,0,0,1.11-.252,1.523,1.523,0,0,0,.588-.551,10.015,10.015,0,0,0,.411-.943l1.988-5.6,1.978,5.627c.165.417.3.725.4.924a1.479,1.479,0,0,0,.579.551,2.194,2.194,0,0,0,1.12.243,2.162,2.162,0,0,0,1.148-.252,1.5,1.5,0,0,0,.569-.579,9.242,9.242,0,0,0,.383-.971l2.221-6.383a3.067,3.067,0,0,0,.205-.877.853.853,0,0,0-.429-.719,1.8,1.8,0,0,0-1.036-.289,1.644,1.644,0,0,0-.943.224,1.278,1.278,0,0,0-.448.495,5.217,5.217,0,0,0-.252.7l-1.568,5.431-1.754-5.086a9.515,9.515,0,0,0-.4-.933,1.6,1.6,0,0,0-.588-.569,2.233,2.233,0,0,0-1.185-.261,2.352,2.352,0,0,0-1.185.252,1.62,1.62,0,0,0-.625.588,6.77,6.77,0,0,0-.4.924l-1.745,5.086-1.577-5.468a3.1,3.1,0,0,0-.476-1A1.38,1.38,0,0,0,69.388,137.23Zm21.491,0a1.786,1.786,0,0,0-1.045.289.859.859,0,0,0-.42.719,2.829,2.829,0,0,0,.205.877l2.221,6.383c.068.191.146.406.233.635a2.16,2.16,0,0,0,.345.607,1.459,1.459,0,0,0,.588.411,2.475,2.475,0,0,0,.933.149,2.171,2.171,0,0,0,1.12-.252,1.49,1.49,0,0,0,.579-.551,10.021,10.021,0,0,0,.411-.943l1.988-5.6,1.978,5.627c.165.417.3.725.4.924a1.479,1.479,0,0,0,.579.551,2.194,2.194,0,0,0,1.12.243,2.162,2.162,0,0,0,1.148-.252,1.5,1.5,0,0,0,.569-.579,9.244,9.244,0,0,0,.383-.971l2.221-6.383a3.067,3.067,0,0,0,.205-.877.853.853,0,0,0-.429-.719,1.8,1.8,0,0,0-1.036-.289,1.644,1.644,0,0,0-.943.224,1.278,1.278,0,0,0-.448.495,5.219,5.219,0,0,0-.252.7l-1.568,5.431-1.754-5.086a9.515,9.515,0,0,0-.4-.933,1.567,1.567,0,0,0-.579-.569,2.233,2.233,0,0,0-1.185-.261,2.391,2.391,0,0,0-1.194.252,1.621,1.621,0,0,0-.625.588,6.772,6.772,0,0,0-.4.924L94.08,144.08,92.5,138.611a3.1,3.1,0,0,0-.467-1,1.4,1.4,0,0,0-1.157-.383Zm21.491,0a1.786,1.786,0,0,0-1.045.289.859.859,0,0,0-.42.719,2.829,2.829,0,0,0,.205.877l2.221,6.383c.068.191.146.406.233.635a2.16,2.16,0,0,0,.345.607,1.459,1.459,0,0,0,.588.411,2.475,2.475,0,0,0,.933.149,2.171,2.171,0,0,0,1.12-.252,1.489,1.489,0,0,0,.579-.551,9.56,9.56,0,0,0,.42-.943l1.978-5.6,1.978,5.627c.165.417.3.725.4.924a1.479,1.479,0,0,0,.579.551,2.194,2.194,0,0,0,1.12.243,2.162,2.162,0,0,0,1.148-.252,1.5,1.5,0,0,0,.569-.579,9.245,9.245,0,0,0,.383-.971l2.221-6.383a3.067,3.067,0,0,0,.205-.877.842.842,0,0,0-.42-.719,1.828,1.828,0,0,0-1.045-.289,1.644,1.644,0,0,0-.943.224,1.278,1.278,0,0,0-.448.495,5.218,5.218,0,0,0-.252.7l-1.558,5.431-1.764-5.086a9.515,9.515,0,0,0-.4-.933,1.567,1.567,0,0,0-.579-.569,2.233,2.233,0,0,0-1.185-.261,2.391,2.391,0,0,0-1.194.252,1.62,1.62,0,0,0-.625.588,6.771,6.771,0,0,0-.4.924l-1.745,5.086L114,138.611a3.1,3.1,0,0,0-.476-1A1.4,1.4,0,0,0,112.371,137.23ZM67.979,150.789a31.613,31.613,0,0,0,60.265,0H123.83a25.75,25.75,0,0,1-1.512,3.481H113.36a35.565,35.565,0,0,0,.961-3.481h-4.265a29.227,29.227,0,0,1-1.092,3.481H99.7v-3.481H95.517v3.481H87.053a35.372,35.372,0,0,1-.989-3.481H81.772c.241,1.178.534,2.342.868,3.481H73.9a25.8,25.8,0,0,1-1.521-3.481h-4.4Zm8.669,7.661h7.493a26.546,26.546,0,0,0,6.168,9.1A27.138,27.138,0,0,1,76.648,158.451Zm12.15,0h6.719v7.811A19.917,19.917,0,0,1,88.8,158.451Zm10.9,0h7.186a22.9,22.9,0,0,1-7.186,7.615Zm11.991,0h7.885a27.191,27.191,0,0,1-15.36,9.528,28.145,28.145,0,0,0,7.475-9.528Z" transform="translate(-67.923 -111.689)" fill="#fff"/>
</svg>
